<svg width="57" height="68" viewBox="0 0 57 68" fill="none" xmlns="http://www.w3.org/2000/svg">
<mask id="mask0_226_1274" style="mask-type:alpha" maskUnits="userSpaceOnUse" x="0" y="0" width="57" height="68">
<path d="M39.4546 48.6978L52.7249 48.255C52.9325 47.429 52.3108 49.9081 52.1015 50.7342C50.5474 56.856 46.3596 60.7837 46.3596 60.7837C43.5862 63.385 40.7077 64.4378 38.6112 65.0904C35.5991 66.0265 32.3002 66.4946 28.7146 66.4946C20.1402 66.4946 13.6036 64.6353 9.1048 60.9165C4.60595 57.1978 2.35683 51.6232 2.35742 44.1928V1.94775H15.8531V41.7525C15.8531 46.5899 16.9171 49.9601 19.0451 51.8631C21.1731 53.7662 24.3354 54.718 28.532 54.7186C30.4272 54.7186 34.5277 54.6548 37.4685 51.6816C38.314 50.8204 38.9878 49.808 39.4546 48.6978Z" fill="#14ACCC"/>
<path d="M48.4501 44C49.1626 43.9867 49.8751 43.7485 49.8751 42.9711C49.8751 42.3655 49.5082 42.0999 48.9222 42.0999C48.2604 42.0999 47.9167 42.3735 47.4518 43.5263C46.4605 45.9886 45.5316 46.6775 43.6835 46.6757C41.9308 46.6757 40.1985 45.7018 40.2012 43.0349C40.2012 39.9297 42.3859 39.3586 43.8527 39.3604V42.1362C43.3273 42.1362 42.5168 42.2053 42.5168 43.0128C42.5168 43.4997 42.8526 43.7583 43.3665 43.7592C43.9765 43.7592 44.2713 43.4475 44.7603 42.2309C45.6714 39.974 46.6636 39.1125 48.5187 39.1143C50.8709 39.1143 52.2709 40.3538 52.2683 43.0313C52.2683 45.9382 50.4086 46.8741 48.4475 46.8935L48.4501 44Z" fill="#14ACCC"/>
<path d="M47.0546 35.073C48.574 35.073 49.7362 34.9402 49.7371 33.9813C49.7371 33.1206 48.9587 32.9923 48.4279 32.9586V30.0119C49.209 30.089 52.2888 30.4059 52.2852 34.0459C52.2852 37.5707 49.3203 38.1436 46.1532 38.141C42.2238 38.141 40.219 36.703 40.2217 33.9724C40.2217 30.8389 42.5587 29.9402 45.7827 29.9429C46.1791 29.9429 46.8177 29.957 47.0572 29.9703L47.0546 35.073ZM44.9099 32.9763C43.7762 32.9763 42.7226 33.0206 42.7217 33.9821C42.7208 34.9437 43.8323 35.0446 44.9082 35.0446L44.9099 32.9763Z" fill="#14ACCC"/>
<path d="M44.0861 28.5103C41.6814 28.5103 41.0295 28.5103 40.4247 28.5271V25.5672C40.7791 25.518 41.1359 25.4885 41.4935 25.4786C40.9173 25.1475 40.2199 24.4577 40.2217 23.1703C40.2217 21.3738 41.481 20.4973 43.7014 20.499L52.0884 20.507V23.5891L44.3399 23.5812C43.4413 23.5812 42.9301 23.7273 42.9301 24.4568C42.9301 25.1147 43.3246 25.4264 44.6151 25.4308L52.091 25.4379V28.52L44.0861 28.5103Z" fill="#14ACCC"/>
<path d="M48.473 16.3564C49.1855 16.3423 49.898 16.105 49.898 15.3267C49.898 14.7211 49.531 14.4563 48.945 14.4554C48.2832 14.4554 47.9404 14.7299 47.4746 15.8827C46.4904 18.3442 45.5579 19.0366 43.7099 19.0313C41.9571 19.0313 40.2249 18.0573 40.2275 15.3913C40.2275 12.2862 42.4122 11.7142 43.8791 11.716V14.4926C43.3545 14.4926 42.5432 14.5608 42.5432 15.3692C42.5432 15.8553 42.8798 16.1147 43.3937 16.1156C44.0029 16.1156 44.2977 15.8039 44.7867 14.5874C45.6978 12.3296 46.6908 11.4689 48.546 11.4707C50.8981 11.4707 52.2973 12.7103 52.2946 15.3878C52.2946 18.2946 50.4359 19.2305 48.4738 19.25L48.473 16.3564Z" fill="#14ACCC"/>
<path d="M47.0818 7.42855C48.6003 7.42855 49.7635 7.29662 49.7635 6.33771C49.7635 5.4762 48.9851 5.3487 48.4543 5.31506V2.36839C49.2362 2.44454 52.3151 2.76151 52.3116 6.40146C52.3116 9.92631 49.3476 10.5001 46.1805 10.4965C42.2502 10.4965 40.2454 9.0586 40.248 6.32797C40.248 3.19448 42.5859 2.29579 45.8091 2.29933C46.2054 2.29933 46.844 2.31349 47.0836 2.32677L47.0818 7.42855ZM44.9363 5.33276C43.8034 5.33276 42.7489 5.37704 42.748 6.33771C42.7471 7.29839 43.8586 7.40021 44.9345 7.40021L44.9363 5.33276Z" fill="#14ACCC"/>
</mask>
<g mask="url(#mask0_226_1274)">
<circle cx="28.5217" cy="39.5217" r="121.522" fill="#36D4F7"/>
</g>
</svg>
